<svg xmlns="http://www.w3.org/2000/svg" viewBox="0 0 374.37 75.28"><defs><style>.cls-1,.cls-5{fill:#fff;}.cls-1,.cls-2,.cls-3{fill-rule:evenodd;}.cls-2,.cls-4{fill:#efb000;}.cls-3{fill:#a7a9ac;}</style></defs><title>bizmod_logo</title><g id="Layer_2" data-name="Layer 2"><g id="Layer_1-2" data-name="Layer 1"><path class="cls-1" d="M38.82,47.74a2.89,2.89,0,0,0-1.29-2.54c-5.45-4.31-10.85-8.69-16.28-13-2.05-1.64-4.13-3.25-6.31-5a5.82,5.82,0,0,0-.18.87c0,8.17,0,12.73,0,20.9l7.12,5.49V41.76c3.48,2.8,6.49,5.22,9.48,7.66.5.41.44,1,.44,1.6,0,4.72,0,9.45,0,14.17,0,1.35-.52,1.76-1.81,1.76-8.24,0-13.05,0-21.28,0C7.5,67,7,66.64,7,65.34q.05-28.05,0-56.1c0-1.35.53-1.58,1.7-1.55,2.93.06,2.45,0,5.39,0,10.85,0,26.25,0,37.1,0,1.73,0,2.21.49,2.09,2.14-.14,1.9,0,9.57,0,11.49,0,.57,0,1.15.48,1.58l6.52,5.23c0-7.21,0-19.7,0-26.45,0-1.38-1-1.09-1.74-1.09C40,.54,20.36.56,1.85.52.45.51,0,.86,0,2.33Q.07,37.27,0,72.22C0,73.49.28,74,1.68,74c13-.05,22.5-.05,35.45,0,1.37,0,1.7-.42,1.69-1.73Q38.74,60,38.82,47.74Z"/><path class="cls-2" d="M60.28,34.9a2.56,2.56,0,0,0-1.09-2.24c-3.45-2.73-8.78-7-17.63-14.09l-5.24-4.2,0,11.12,6.94,5.56c.08-.6.15-1.09.26-1.85,2.93,2.34,5.58,4.54,8.32,6.62a3.35,3.35,0,0,1,1.48,3c-.06,10-.05,25,0,35.05h7C60.23,61.46,60.24,47.34,60.28,34.9Z"/><path class="cls-3" d="M47.86,38C40.91,32.55,32.62,25.7,25.7,20.19L26,32.42a67,67,0,0,0,6.52,5.13c.11-.9.18-1.51.29-2.42,2.9,2.32,5.59,4.54,8.36,6.65a3.24,3.24,0,0,1,1.38,2.91c-.05,9.18,0,20-.05,29.22h7.1c-.06-10.2-.07-22.14,0-32.34A4,4,0,0,0,47.86,38Z"/><path class="cls-4" d="M81.6,0V30.53a21.87,21.87,0,0,1,6.79-5,18.63,18.63,0,0,1,7.81-1.66,19.67,19.67,0,0,1,15.36,7.23q6.32,7.24,6.32,18.56,0,10.92-6.53,18.26T95.85,75.28a18.34,18.34,0,0,1-7.42-1.5,22.58,22.58,0,0,1-6.83-4.92V74H70.1V0ZM93.77,35.2a11.77,11.77,0,0,0-9.08,4,14.73,14.73,0,0,0-3.61,10.33Q81.09,56,84.69,60a11.67,11.67,0,0,0,9.08,4A11.48,11.48,0,0,0,102.7,60a15.13,15.13,0,0,0,3.63-10.42,15,15,0,0,0-3.57-10.31A11.51,11.51,0,0,0,93.77,35.2ZM132.85,5a6.9,6.9,0,0,1,5.22,2.34A8,8,0,0,1,140.25,13a7.91,7.91,0,0,1-2.16,5.59,6.82,6.82,0,0,1-5.16,2.31,6.91,6.91,0,0,1-5.27-2.36,8.13,8.13,0,0,1-2.18-5.73,7.77,7.77,0,0,1,2.16-5.53A6.89,6.89,0,0,1,132.85,5Zm-5.79,20.13h11.58V74H127.06Zm21,0h35.34l-20.74,38.5h19.55V74H144.9l20.84-38.5H148.08Z"/><path class="cls-5" d="M191.59,25.14h5.94v8.45a23.7,23.7,0,0,1,6.37-6.83,17.31,17.31,0,0,1,9.47-2.88,15,15,0,0,1,6.37,1.39A13.75,13.75,0,0,1,224.67,29,20.4,20.4,0,0,1,228,35.6a22.79,22.79,0,0,1,7.4-8.74,16.84,16.84,0,0,1,9.57-3,14.37,14.37,0,0,1,8.45,2.56,15.15,15.15,0,0,1,5.44,7.14q1.78,4.58,1.78,13.75V74h-6.07V47.33q0-7.86-1.06-10.81a9.65,9.65,0,0,0-3.62-4.74,10.36,10.36,0,0,0-6.11-1.8,12.81,12.81,0,0,0-7.89,2.7,15.44,15.44,0,0,0-5.22,7.19q-1.65,4.49-1.65,15V74h-5.94V49q0-8.85-1-12a9.93,9.93,0,0,0-9.78-7,12.78,12.78,0,0,0-7.7,2.63,15.45,15.45,0,0,0-5.3,7.08q-1.72,4.45-1.72,13.61V74h-5.94Zm102.53-1.26a22.31,22.31,0,0,1,17.68,8.18,26.3,26.3,0,0,1,6.37,17.66,26.27,26.27,0,0,1-6.74,17.9,23.46,23.46,0,0,1-34.68,0A26.26,26.26,0,0,1,270,49.72a26.25,26.25,0,0,1,6.38-17.61A22.29,22.29,0,0,1,294.11,23.88Zm0,6.15a16.69,16.69,0,0,0-12.73,5.8,20,20,0,0,0-5.32,14,20.8,20.8,0,0,0,2.43,9.89A17.77,17.77,0,0,0,285,66.81a17.74,17.74,0,0,0,18.14,0,17.75,17.75,0,0,0,6.55-7.07,20.8,20.8,0,0,0,2.43-9.89,19.94,19.94,0,0,0-5.34-14A16.72,16.72,0,0,0,294.09,30ZM374.37.76V74h-5.86v-8.4a25.78,25.78,0,0,1-8.38,7.23A21.6,21.6,0,0,1,350,75.28a22,22,0,0,1-16.74-7.53,26,26,0,0,1-6.94-18.31,25.54,25.54,0,0,1,7-18.06,22.22,22.22,0,0,1,16.85-7.5,20.79,20.79,0,0,1,10.29,2.56,23.9,23.9,0,0,1,8.08,7.68V.76ZM350.63,29.95a17.16,17.16,0,0,0-9.16,2.58,18.48,18.48,0,0,0-6.67,7.25,20.83,20.83,0,0,0,0,19.75,18.82,18.82,0,0,0,6.72,7.34,16.79,16.79,0,0,0,9,2.63,18.3,18.3,0,0,0,16-9.65,21.06,21.06,0,0,0,2.35-10,20.09,20.09,0,0,0-5.27-14.18A17,17,0,0,0,350.63,29.95Z"/></g></g></svg>